<?xml version="1.0" encoding="UTF-8"?><svg id="Layer_2" xmlns="http://www.w3.org/2000/svg" viewBox="0 0 75.02 70.87"><g id="Draw_layer"><path d="m72.65,53.24l-10.67-4.7c-1.47-.67-3.28-.32-4.37.87l-3.29-4.18-.14-14.15c-.03-3.09-.6-6.13-1.68-9.02l-7.45-19.89c-1.17-3.41-6.26-2.57-6.24,1.11l2.24,17.63c-1.38.48-2.36,1.87-2.34,3.34,0,0,0,23.53,0,23.53,0,2.91.86,5.73,2.48,8.16l4.17,6.23c-1.84,1.02-2.53,3.58-1.44,5.39,0,0,.74,1.31.74,1.31.7,1.24,2.03,2.01,3.46,2.01h22.92c2.19,0,3.97-1.78,3.97-3.97v-10.02c0-1.57-.93-3-2.37-3.64Zm-31.71-5.46v-23.53c.03-1.77,2.67-1.78,2.7,0l2.72,14.07,2.18-.43-2.69-13.76c-.05-1.57-1.13-2.87-2.57-3.29l-2.25-17.66c0-1.1,1.59-1.34,1.93-.27l7.46,19.93c.99,2.65,1.51,5.43,1.54,8.26l.15,14.9,4.38,5.57h0c-.79,4.68-3.66,7.81-8.99,9.78l-4.46-6.66c-1.38-2.06-2.1-4.45-2.1-6.92Zm31.86,19.12c0,.97-.79,1.75-1.75,1.75h-22.92c-1.25.06-1.75-1.31-2.27-2.19-.55-.92-.06-2.23.98-2.53,6.98-2.18,10.85-6.1,11.84-11.99.1-.57.43-1.05.93-1.31.47-.25.99-.27,1.48-.06l10.67,4.7c.64.28,1.05.91,1.05,1.6v10.02Z"/><path d="m33.96,20.9l2.23-17.49v-.24c-.02-3.58-5.05-4.4-6.22-1.05l-7.46,19.93c-1.08,2.9-1.65,5.93-1.68,9.02l-.14,14.15-3.29,4.18c-1.09-1.18-2.9-1.53-4.37-.87l-10.67,4.7c-1.44.63-2.37,2.06-2.37,3.64v10.02c0,2.19,1.78,3.97,3.97,3.97h22.92c1.43,0,2.75-.77,3.45-2.01l.74-1.31c1.09-1.81.4-4.37-1.44-5.39l4.17-6.23c1.62-2.43,2.48-5.25,2.48-8.15v-23.53c.02-1.47-.96-2.86-2.34-3.34Zm-4.8,45.55c-.52.88-1.01,2.25-2.27,2.19,0,0-22.92,0-22.92,0-.97,0-1.75-.79-1.75-1.75v-10.02c0-.69.41-1.32,1.05-1.6l10.67-4.7c.49-.21,1.01-.2,1.48.06.49.27.83.75.93,1.31.99,5.89,4.86,9.81,11.84,11.99,1.03.3,1.53,1.61.98,2.53Zm4.92-18.68c0,2.47-.73,4.86-2.1,6.92l-4.46,6.66c-5.33-1.97-8.2-5.1-8.99-9.78h0s4.38-5.57,4.38-5.57l.15-14.9c.03-2.83.55-5.61,1.54-8.26l7.47-19.96c.34-1.02,1.91-.8,1.91.34l-2.25,17.62c-1.45.42-2.52,1.73-2.57,3.29l-2.69,13.76,2.18.43,2.7-13.86.02-.21c.03-1.78,2.67-1.77,2.7,0,0,0,0,23.53,0,23.53Z"/></g></svg>