<?xml version="1.0" encoding="UTF-8"?><svg id="Layer_2" xmlns="http://www.w3.org/2000/svg" xmlns:xlink="http://www.w3.org/1999/xlink" viewBox="0 0 172.88 70"><defs><style>.cls-1{fill:url(#linear-gradient);}.cls-2{fill:#fff;}.cls-3{fill:url(#linear-gradient-8);}.cls-4{fill:url(#linear-gradient-9);}.cls-5{fill:url(#linear-gradient-3);}.cls-6{fill:url(#linear-gradient-4);}.cls-7{fill:url(#linear-gradient-2);}.cls-8{fill:url(#linear-gradient-6);}.cls-9{fill:url(#linear-gradient-7);}.cls-10{fill:url(#linear-gradient-5);}</style><linearGradient id="linear-gradient" x1="157.5" y1="8.57" x2="76.8" y2="49.85" gradientUnits="userSpaceOnUse"><stop offset="0" stop-color="#589c48"/><stop offset="1" stop-color="#7bb662"/></linearGradient><linearGradient id="linear-gradient-2" x1="163.31" y1="19.93" x2="82.61" y2="61.21" xlink:href="#linear-gradient"/><linearGradient id="linear-gradient-3" x1="146.88" y1="-12.19" x2="66.18" y2="29.09" xlink:href="#linear-gradient"/><linearGradient id="linear-gradient-4" x1="152.36" y1="-1.49" x2="71.66" y2="39.79" xlink:href="#linear-gradient"/><linearGradient id="linear-gradient-5" x1="155.04" y1="3.76" x2="74.34" y2="45.03" xlink:href="#linear-gradient"/><linearGradient id="linear-gradient-6" x1="161.04" y1="15.48" x2="80.34" y2="56.76" xlink:href="#linear-gradient"/><linearGradient id="linear-gradient-7" x1="165.31" y1="23.84" x2="84.62" y2="65.12" xlink:href="#linear-gradient"/><linearGradient id="linear-gradient-8" x1="171.15" y1="35.26" x2="90.46" y2="76.54" xlink:href="#linear-gradient"/><linearGradient id="linear-gradient-9" x1="0" y1="35" x2="70" y2="35" xlink:href="#linear-gradient"/></defs><g id="Draw_layer"><path class="cls-1" d="m140.42,12.38v21.88h-5.91V12.38h-7.35v-5.25h20.6v5.25h-7.35Z"/><path class="cls-7" d="m166.98,23.15h-10.34v11.12h-5.91V7.13h5.91v10.81h10.34V7.13h5.91v27.13h-5.91v-11.12Z"/><path class="cls-5" d="m95.84,12.39l1.72-5.25h-17.95v27.12h5.93v-11.12h6.74l1.72-5.22h-8.46v-5.54h10.31Z"/><path class="cls-6" d="m110.9,34.26l-1.94-6.45h-9.06l-1.94,6.45h-5.98l8.94-27.13h7.31l8.82,27.13h-6.14Zm-6.42-21.77h-.19l-2.99,10.3h6.22l-3.03-10.3Z"/><path class="cls-10" d="m118.96,34.26V7.13h5.91v27.13h-5.91Z"/><path class="cls-8" d="m89.05,52.85l-3.54,4.28v7.54h-5.91v-27.13h5.91v12.9h.23l3.85-5.25,6.1-7.66h6.68l-9.13,11.16,9.95,15.97h-6.96l-7.19-11.82Z"/><path class="cls-9" d="m101,50.63c0-9.21,4.74-14.03,11.93-14.03s11.93,4.82,11.93,14.03-4.74,14.03-11.93,14.03-11.93-4.82-11.93-14.03Zm17.61,2.02v-4.04c0-4.31-2.14-6.76-5.67-6.76s-5.67,2.45-5.67,6.76v4.04c0,4.31,2.14,6.76,5.67,6.76s5.67-2.45,5.67-6.76Z"/><path class="cls-3" d="m147.55,46.86h-.11l-1.98,3.97-5.29,9.6-5.17-9.56-2.06-4.28h-.12v18.07h-5.56v-27.13h6.26l6.65,12.71h.08l6.57-12.71h6.3v27.13h-5.56v-17.8Z"/><path class="cls-4" d="m70,35c0,18.57-14.49,33.77-32.76,34.94-.75.03-1.49.06-2.24.06s-1.52-.03-2.27-.06C14.45,68.77,0,53.57,0,35S15.65,0,35,0s35,15.65,35,35Z"/><path class="cls-2" d="m59.4,19.7c-2.95-2.98-6.9-4.6-11.08-4.6s-8.13,1.62-11.12,4.6l-2.2,2.2-1.81-1.78c-5.9-5.9-15.33-6.55-21.49-1.46-3.47,2.88-5.48,6.9-5.7,11.38-.23,4.44,1.46,8.75,4.7,11.96l22.04,19.48v8.46c.75.03,1.52.06,2.27.06s1.49-.03,2.24-.06v-8.46l22.17-19.57c2.98-2.95,4.6-6.9,4.6-11.08s-1.62-8.17-4.6-11.12Zm-26.67,14.65h-11.02v4.5h11.02v16.62l-18.99-16.75c-2.2-2.24-3.4-5.31-3.24-8.46.13-3.18,1.59-6.09,4.08-8.13,1.94-1.62,4.41-2.4,6.87-2.4,3.08,0,6.19,1.2,8.56,3.56l2.72,2.72v8.33Zm23.59,4.28l-19.09,16.85v-16.62h11.02v-4.5h-11.02v-8.33l3.14-3.14c2.14-2.11,4.93-3.27,7.94-3.27s5.8,1.17,7.91,3.27c2.14,2.11,3.3,4.93,3.3,7.94s-1.17,5.8-3.21,7.81Z"/></g></svg>