<?xml version="1.0" encoding="UTF-8"?><svg id="Layer_2" xmlns="http://www.w3.org/2000/svg" viewBox="0 0 172.88 69.94"><defs><style>.cls-1{fill:#fff;}</style></defs><g id="Draw_layer"><path class="cls-1" d="m127.17,7.14v5.25h7.34v21.88h5.91V12.39h7.35v-5.25h-20.6Z"/><path class="cls-1" d="m166.97,7.14v10.8h-10.33V7.14h-5.91v27.13h5.91v-11.12h10.33v11.12h5.91V7.14h-5.91Z"/><path class="cls-1" d="m95.84,12.4l1.72-5.25h-17.95v27.12h5.93v-11.12h6.74l1.71-5.21h-8.45v-5.54h10.3Z"/><path class="cls-1" d="m108.22,7.14h-7.31l-8.94,27.13h5.99l1.94-6.45h9.06l1.94,6.45h6.14l-8.82-27.13Zm-6.92,15.66l2.99-10.3h.2l3.03,10.3h-6.22Z"/><path class="cls-1" d="m118.96,7.14v27.13h5.91V7.14h-5.91Z"/><path class="cls-1" d="m93.25,48.7l9.13-11.16h-6.68l-6.11,7.66-3.84,5.24h-.24v-12.9h-5.9v27.13h5.9v-7.54l3.54-4.28,7.19,11.82h6.96l-9.95-15.97Z"/><path class="cls-1" d="m112.93,36.61c-7.19,0-11.93,4.82-11.93,14.03s4.74,14.03,11.93,14.03,11.94-4.82,11.94-14.03-4.75-14.03-11.94-14.03Zm5.68,16.05c0,4.31-2.14,6.76-5.68,6.76s-5.67-2.45-5.67-6.76v-4.04c0-4.32,2.14-6.77,5.67-6.77s5.68,2.45,5.68,6.77v4.04Z"/><path class="cls-1" d="m146.81,37.54l-6.56,12.71h-.08l-6.65-12.71h-6.26v27.13h5.56v-18.07h.12l2.06,4.27,5.17,9.56,5.28-9.6,1.99-3.96h.11v17.8h5.56v-27.13h-6.3Z"/><path class="cls-1" d="m30.01,23.31l2.72,2.72v8.33h-11.02v4.5h11.02v16.63l-18.99-16.76c-2.2-2.24-3.4-5.31-3.24-8.46.13-3.17,1.59-6.09,4.08-8.13,1.95-1.62,4.41-2.4,6.87-2.4,3.08,0,6.19,1.2,8.56,3.57Z"/><path class="cls-1" d="m48.25,38.86v-4.5h-11.02v-8.33l3.15-3.15c2.14-2.1,4.92-3.27,7.94-3.27s5.8,1.17,7.91,3.27c2.13,2.11,3.3,4.93,3.3,7.94s-1.17,5.8-3.21,7.81l-19.09,16.86v-16.63h11.02Z"/><path class="cls-1" d="m70,35c0,18.57-14.49,33.77-32.77,34.94v-8.46l22.17-19.57c2.98-2.95,4.6-6.91,4.6-11.09s-1.62-8.16-4.6-11.11c-2.95-2.98-6.9-4.6-11.08-4.6s-8.14,1.62-11.12,4.6l-2.2,2.2-1.82-1.78c-5.89-5.9-15.33-6.55-21.48-1.46-3.47,2.89-5.48,6.9-5.71,11.38-.22,4.44,1.46,8.75,4.7,11.95l22.04,19.48v8.46C14.45,68.77,0,53.57,0,35S15.65,0,35,0s35,15.66,35,35Z"/></g></svg>