<?xml version="1.0" encoding="UTF-8"?><svg id="Layer_2" xmlns="http://www.w3.org/2000/svg" viewBox="0 0 47.84 70.87"><g id="Draw_layer"><path d="m46.73,0c-5.97,0-40.53,0-45.62,0-.61,0-1.11.5-1.11,1.11v63.54h.09c.54,3.51,3.57,6.21,7.23,6.21h40.52v-2.22c-8.26.67-8.25-10.89,0-10.21V1.11C47.84.5,47.34,0,46.73,0Zm-1.11,2.22v54H9.15V2.22h36.48ZM6.93,2.22v54.02c-1.83.1-3.48.86-4.71,2.06V2.22h4.71Zm.4,66.43c-6.75-.24-6.75-9.97,0-10.21,0,0,1.82,0,1.82,0h32.34c-2.73,2.59-2.73,7.62,0,10.21H7.32Z"/><path d="m16.67,25.97h6.93v21.11c0,.61.5,1.11,1.11,1.11h5.36c.61,0,1.11-.5,1.11-1.11v-21.11h6.93c.61,0,1.11-.5,1.11-1.11v-5.36c0-.61-.5-1.11-1.11-1.11h-6.93v-7.03c0-.61-.5-1.11-1.11-1.11h-5.36c-.61,0-1.11.5-1.11,1.11v7.03h-6.93c-.61,0-1.11.5-1.11,1.11v5.36c0,.61.5,1.11,1.11,1.11Zm1.11-5.36h6.93c.61,0,1.11-.5,1.11-1.11v-7.03h3.14v7.03c0,.61.5,1.11,1.11,1.11h6.93v3.14h-6.93c-.61,0-1.11.5-1.11,1.11v21.11h-3.14v-21.11c0-.61-.5-1.11-1.11-1.11h-6.93v-3.14Z"/></g></svg>